<svg width="37" height="37" viewBox="0 0 37 37" fill="none" xmlns="http://www.w3.org/2000/svg">
<path d="M8.25324 0H29.6255C29.9019 0.0417911 30.1799 0.0771521 30.4547 0.12698C33.2579 0.639884 35.4707 2.80106 36.0501 5.59198C36.1449 6.05329 36.1738 6.52745 36.2365 7.0193H35.973L11.8914 7.02895C11.2091 7.0255 10.5312 7.13689 9.88589 7.35845C8.1133 7.95745 6.69785 9.31236 6.02168 11.0574C5.34552 12.8024 5.47837 14.7575 6.38437 16.395C7.58315 18.5488 9.47612 19.6547 11.938 19.6756C15.5568 19.7077 19.1692 19.6756 22.7944 19.6852C24.8658 19.6914 26.5443 21.3681 26.5531 23.44C26.5531 24.4558 26.5531 25.4717 26.5531 26.494C26.5531 26.5615 26.5531 26.629 26.5434 26.7061H8.83817C7.42484 26.7286 6.02835 26.397 4.77583 25.7417C2.24972 24.3707 0.689377 22.2779 0.151052 19.4489C0.0883814 19.1178 0.0498151 18.7803 0 18.446V8.33412C0.0128556 8.27947 0.0321419 8.22482 0.0401766 8.17338C0.106061 7.72975 0.143016 7.2797 0.236218 6.8425C0.964162 3.46063 3.83576 0.713667 7.23123 0.151094C7.5719 0.0948372 7.91257 0.0498279 8.25324 0ZM0.782579 31.0219C1.2918 34.4831 4.2786 37.0361 7.77599 36.9996C14.6023 36.9996 21.4285 36.9996 28.2548 36.9996C28.8393 36.9983 29.4222 36.9396 29.9951 36.8244C34.0898 35.9774 37.0199 32.3607 36.9999 28.1785C36.9612 25.1245 36.9999 22.0705 36.9869 19.0166C36.9728 14.1998 33.0655 10.3024 28.25 10.3015C22.3879 10.3015 16.5258 10.3015 10.6637 10.3015H10.4451C10.4378 10.3495 10.433 10.3977 10.4306 10.4462C10.4306 11.7128 10.4178 12.981 10.4467 14.246C10.4869 16.014 11.8592 17.3289 13.6333 17.3289C17.4257 17.3289 21.218 17.3289 25.0104 17.3289C26.73 17.3017 28.384 17.9883 29.5789 19.2255C31.9098 21.595 32.0033 25.3668 29.7927 27.849C28.5836 29.2305 26.8264 30.0076 24.9911 29.9723C16.9821 29.9723 8.97316 29.9723 0.964167 29.9723H0.686163C0.719909 30.35 0.731157 30.7004 0.782579 31.0219Z" fill="white"/>
</svg>
