<svg width="34" height="33" viewBox="0 0 34 33" fill="none" xmlns="http://www.w3.org/2000/svg">
<path fill-rule="evenodd" clip-rule="evenodd" d="M11.4672 13.5987H5.39003C4.49832 13.592 3.64018 13.9052 3.00442 14.4693C2.36866 15.0334 2.00736 15.8023 2 16.6067V27.9912C2.0165 29.6656 3.53396 31.0112 5.39003 30.9972H11.4672C12.3589 31.0039 13.2171 30.6908 13.8528 30.1266C14.4886 29.5625 14.8499 28.7937 14.8573 27.9892V16.6067C14.8499 15.8023 14.4886 15.0334 13.8528 14.4693C13.2171 13.9052 12.3589 13.592 11.4672 13.5987Z" fill="black" stroke="white" stroke-width="2.5" stroke-linecap="round" stroke-linejoin="round"/>
<path fill-rule="evenodd" clip-rule="evenodd" d="M11.4672 2.00117H5.39003C3.57128 1.95566 2.05483 3.24674 2 4.88738V6.84761C2.05483 8.48826 3.57128 9.77934 5.39003 9.73383H11.4672C13.286 9.77934 14.8024 8.48826 14.8573 6.84761V4.88738C14.8024 3.24674 13.286 1.95566 11.4672 2.00117Z" fill="black" stroke="white" stroke-width="2.5" stroke-linecap="round" stroke-linejoin="round"/>
<path fill-rule="evenodd" clip-rule="evenodd" d="M22.5326 19.4005H28.6077C29.4997 19.4077 30.3584 19.0948 30.9947 18.5306C31.6309 17.9665 31.9925 17.1973 31.9998 16.3925V5.01006C31.9925 4.20562 31.6312 3.43676 30.9954 2.87264C30.3597 2.30853 29.5015 1.99537 28.6098 2.00206H22.5326C21.6409 1.99537 20.7828 2.30853 20.147 2.87264C19.5112 3.43676 19.1499 4.20562 19.1426 5.01006V16.3925C19.1499 17.197 19.5112 17.9658 20.147 18.53C20.7828 19.0941 21.6409 19.4072 22.5326 19.4005Z" fill="black" stroke="white" stroke-width="2.5" stroke-linecap="round" stroke-linejoin="round"/>
<path fill-rule="evenodd" clip-rule="evenodd" d="M22.5326 30.9985H28.6077C30.4272 31.0451 31.945 29.7537 31.9998 28.1123V26.152C31.945 24.5114 30.4286 23.2203 28.6098 23.2658H22.5326C20.7139 23.2203 19.1974 24.5114 19.1426 26.152V28.1103C19.1963 29.7517 20.713 31.044 22.5326 30.9985Z" fill="black" stroke="white" stroke-width="2.5" stroke-linecap="round" stroke-linejoin="round"/>
</svg>
