<svg width="33" height="39" viewBox="0 0 33 39" fill="none" xmlns="http://www.w3.org/2000/svg">
<path fill-rule="evenodd" clip-rule="evenodd" d="M22.8982 24.2494H10.1007C6.33412 24.4364 2.99712 26.7371 1.4829 30.1909C-0.343466 33.7765 3.30152 37.1657 7.54066 37.1657H25.4582C29.6999 37.1657 33.3449 33.7765 31.5159 30.1909C30.0017 26.7371 26.6647 24.4364 22.8982 24.2494Z" stroke="white" stroke-width="2" stroke-linecap="round" stroke-linejoin="round"/>
<path fill-rule="evenodd" clip-rule="evenodd" d="M24.2496 8.7498C24.2496 13.0299 20.7799 16.4996 16.4998 16.4996C12.2197 16.4996 8.75 13.0299 8.75 8.7498C8.75 4.4697 12.2197 1 16.4998 1C18.5552 1 20.5264 1.81649 21.9797 3.26986C23.4331 4.72323 24.2496 6.69442 24.2496 8.7498Z" stroke="white" stroke-width="2" stroke-linecap="round" stroke-linejoin="round"/>
</svg>
