<svg width="42" height="35" viewBox="0 0 42 35" fill="none" xmlns="http://www.w3.org/2000/svg">
<path d="M42 4.05002C40.4555 4.73442 38.7963 5.19685 37.052 5.40587C38.8518 4.32895 40.1983 2.63399 40.8402 0.637266C39.1493 1.64165 37.2986 2.34863 35.3687 2.72746C34.0709 1.34176 32.3519 0.423301 30.4786 0.114669C28.6053 -0.193962 26.6826 0.124505 25.0088 1.02063C23.3351 1.91675 22.004 3.34039 21.2223 5.07052C20.4405 6.80065 20.2519 8.74048 20.6855 10.5888C17.2593 10.4168 13.9074 9.52624 10.8476 7.97497C7.78778 6.42371 5.08832 4.24639 2.92443 1.58433C2.18453 2.86064 1.75909 4.34043 1.75909 5.9164C1.75827 7.33513 2.10764 8.73214 2.77622 9.98346C3.4448 11.2348 4.41191 12.3017 5.59174 13.0897C4.22345 13.0461 2.88535 12.6764 1.6888 12.0113V12.1222C1.68867 14.1121 2.37697 16.0407 3.63691 17.5808C4.89686 19.1209 6.65084 20.1777 8.60125 20.5718C7.33194 20.9153 6.00115 20.9659 4.70942 20.7198C5.25971 22.4319 6.33162 23.9291 7.7751 25.0018C9.21858 26.0744 10.9614 26.6689 12.7594 26.7018C9.70708 29.098 5.93743 30.3978 2.0569 30.392C1.36951 30.3922 0.682692 30.3521 0 30.2718C3.93896 32.8044 8.52419 34.1485 13.2071 34.1433C29.0593 34.1433 37.7253 21.0139 37.7253 9.62696C37.7253 9.25701 37.716 8.88337 37.6994 8.51342C39.385 7.2944 40.8401 5.78487 41.9963 4.05557L42 4.05002Z" fill="white"/>
</svg>
