<svg width="21" height="15" viewBox="0 0 21 15" fill="none" xmlns="http://www.w3.org/2000/svg">
<path d="M8.51466 1.72414C8.91459 1.34325 8.93002 0.710275 8.54914 0.310345C8.16825 -0.0895855 7.53528 -0.105024 7.13535 0.275862L8.51466 1.72414ZM0.310345 6.77586C-0.0895855 7.15675 -0.105024 7.78972 0.275862 8.18965C0.656748 8.58959 1.28972 8.60502 1.68966 8.22414L0.310345 6.77586ZM1.68966 6.77586C1.28972 6.39498 0.656748 6.41041 0.275862 6.81034C-0.105024 7.21028 -0.0895855 7.84325 0.310345 8.22414L1.68966 6.77586ZM7.13535 14.7241C7.53528 15.105 8.16825 15.0896 8.54914 14.6897C8.93002 14.2897 8.91459 13.6567 8.51466 13.2759L7.13535 14.7241ZM1 6.49987C0.447715 6.49987 0 6.94758 0 7.49987C0 8.05215 0.447715 8.49987 1 8.49987V6.49987ZM19.2 8.49987C19.7523 8.49987 20.2 8.05215 20.2 7.49987C20.2 6.94758 19.7523 6.49987 19.2 6.49987V8.49987ZM7.13535 0.275862L0.310345 6.77586L1.68966 8.22414L8.51466 1.72414L7.13535 0.275862ZM0.310345 8.22414L7.13535 14.7241L8.51466 13.2759L1.68966 6.77586L0.310345 8.22414ZM1 8.49987H19.2V6.49987H1V8.49987Z" fill="white"/>
</svg>
