<svg width="32" height="28" viewBox="0 0 32 28" fill="none" xmlns="http://www.w3.org/2000/svg">
<path d="M6.43114 20.3226C6.84502 20.306 7.1671 19.9571 7.15052 19.5432C7.13394 19.1293 6.78499 18.8073 6.37111 18.8238L6.43114 20.3226ZM1 14.6214L0.250369 14.5979C0.249757 14.6174 0.249907 14.6369 0.250818 14.6564L1 14.6214ZM5.05316 9.82559L5.2013 10.5608C5.55137 10.4903 5.80316 10.1827 5.80316 9.82559H5.05316ZM5.05316 9.66962L4.30399 9.63432C4.30344 9.64608 4.30316 9.65785 4.30316 9.66962H5.05316ZM10.4524 4.71968L10.4227 5.46909C10.4331 5.4695 10.4435 5.4697 10.4539 5.46968L10.4524 4.71968ZM12.4335 5.06317L12.1797 5.76891C12.5341 5.89639 12.9281 5.74122 13.1004 5.40629L12.4335 5.06317ZM19.229 1.00629L19.2146 1.75616C19.2298 1.75645 19.245 1.75628 19.2602 1.75565L19.229 1.00629ZM26.6558 7.81479L27.4058 7.81413C27.4058 7.80305 27.4055 7.79197 27.405 7.7809L26.6558 7.81479ZM26.3476 9.76432L25.6344 9.53233C25.5659 9.74282 25.5939 9.9728 25.7109 10.1607C25.8279 10.3486 26.0219 10.4752 26.241 10.5067L26.3476 9.76432ZM30.7071 14.6214L31.4563 14.6564C31.4572 14.6361 31.4573 14.6157 31.4566 14.5954L30.7071 14.6214ZM25.336 18.8238C24.9221 18.8073 24.5731 19.1293 24.5566 19.5432C24.54 19.9571 24.8621 20.306 25.276 20.3226L25.336 18.8238ZM16.6035 15.8598C16.6035 15.4456 16.2678 15.1098 15.8535 15.1098C15.4393 15.1098 15.1035 15.4456 15.1035 15.8598H16.6035ZM15.1035 27C15.1035 27.4142 15.4393 27.75 15.8535 27.75C16.2678 27.75 16.6035 27.4142 16.6035 27H15.1035ZM16.3839 16.3902C16.6768 16.0973 16.6768 15.6224 16.3839 15.3295C16.091 15.0366 15.6161 15.0366 15.3232 15.3295L16.3839 16.3902ZM11.6098 19.0429C11.3169 19.3358 11.3169 19.8107 11.6098 20.1036C11.9027 20.3964 12.3776 20.3964 12.6705 20.1036L11.6098 19.0429ZM16.3839 15.3295C16.091 15.0366 15.6161 15.0366 15.3232 15.3295C15.0303 15.6224 15.0303 16.0973 15.3232 16.3902L16.3839 15.3295ZM19.0366 20.1036C19.3295 20.3964 19.8044 20.3964 20.0973 20.1036C20.3902 19.8107 20.3902 19.3358 20.0973 19.0429L19.0366 20.1036ZM6.37111 18.8238C3.9277 18.9217 1.86338 17.0291 1.74918 14.5864L0.250818 14.6564C0.403518 17.9228 3.16388 20.4535 6.43114 20.3226L6.37111 18.8238ZM1.74963 14.6449C1.81232 12.6473 3.24201 10.9556 5.2013 10.5608L4.90502 9.09036C2.26287 9.62274 0.334901 11.904 0.250369 14.5979L1.74963 14.6449ZM5.80316 9.82559C5.80316 9.82549 5.80316 9.82538 5.80316 9.82528C5.80316 9.82518 5.80316 9.82508 5.80316 9.82498C5.80316 9.82488 5.80316 9.82477 5.80316 9.82467C5.80316 9.82457 5.80316 9.82447 5.80316 9.82437C5.80316 9.82427 5.80316 9.82417 5.80316 9.82406C5.80316 9.82396 5.80316 9.82386 5.80316 9.82376C5.80316 9.82366 5.80316 9.82356 5.80316 9.82345C5.80316 9.82335 5.80316 9.82325 5.80316 9.82315C5.80316 9.82305 5.80316 9.82295 5.80316 9.82285C5.80316 9.82274 5.80316 9.82264 5.80316 9.82254C5.80316 9.82244 5.80316 9.82234 5.80316 9.82224C5.80316 9.82213 5.80316 9.82203 5.80316 9.82193C5.80316 9.82183 5.80316 9.82173 5.80316 9.82163C5.80316 9.82153 5.80316 9.82142 5.80316 9.82132C5.80316 9.82122 5.80316 9.82112 5.80316 9.82102C5.80316 9.82092 5.80316 9.82082 5.80316 9.82071C5.80316 9.82061 5.80316 9.82051 5.80316 9.82041C5.80316 9.82031 5.80316 9.82021 5.80316 9.8201C5.80316 9.82 5.80316 9.8199 5.80316 9.8198C5.80316 9.8197 5.80316 9.8196 5.80316 9.8195C5.80316 9.81939 5.80316 9.81929 5.80316 9.81919C5.80316 9.81909 5.80316 9.81899 5.80316 9.81889C5.80316 9.81878 5.80316 9.81868 5.80316 9.81858C5.80316 9.81848 5.80316 9.81838 5.80316 9.81828C5.80316 9.81818 5.80316 9.81807 5.80316 9.81797C5.80316 9.81787 5.80316 9.81777 5.80316 9.81767C5.80316 9.81757 5.80316 9.81746 5.80316 9.81736C5.80316 9.81726 5.80316 9.81716 5.80316 9.81706C5.80316 9.81696 5.80316 9.81685 5.80316 9.81675C5.80316 9.81665 5.80316 9.81655 5.80316 9.81645C5.80316 9.81635 5.80316 9.81625 5.80316 9.81614C5.80316 9.81604 5.80316 9.81594 5.80316 9.81584C5.80316 9.81574 5.80316 9.81564 5.80316 9.81553C5.80316 9.81543 5.80316 9.81533 5.80316 9.81523C5.80316 9.81513 5.80316 9.81503 5.80316 9.81493C5.80316 9.81482 5.80316 9.81472 5.80316 9.81462C5.80316 9.81452 5.80316 9.81442 5.80316 9.81432C5.80316 9.81421 5.80316 9.81411 5.80316 9.81401C5.80316 9.81391 5.80316 9.81381 5.80316 9.81371C5.80316 9.81361 5.80316 9.8135 5.80316 9.8134C5.80316 9.8133 5.80316 9.8132 5.80316 9.8131C5.80316 9.813 5.80316 9.81289 5.80316 9.81279C5.80316 9.81269 5.80316 9.81259 5.80316 9.81249C5.80316 9.81239 5.80316 9.81229 5.80316 9.81218C5.80316 9.81208 5.80316 9.81198 5.80316 9.81188C5.80316 9.81178 5.80316 9.81168 5.80316 9.81157C5.80316 9.81147 5.80316 9.81137 5.80316 9.81127C5.80316 9.81117 5.80316 9.81107 5.80316 9.81097C5.80316 9.81086 5.80316 9.81076 5.80316 9.81066C5.80316 9.81056 5.80316 9.81046 5.80316 9.81036C5.80316 9.81026 5.80316 9.81015 5.80316 9.81005C5.80316 9.80995 5.80316 9.80985 5.80316 9.80975C5.80316 9.80965 5.80316 9.80954 5.80316 9.80944C5.80316 9.80934 5.80316 9.80924 5.80316 9.80914C5.80316 9.80904 5.80316 9.80894 5.80316 9.80883C5.80316 9.80873 5.80316 9.80863 5.80316 9.80853C5.80316 9.80843 5.80316 9.80833 5.80316 9.80822C5.80316 9.80812 5.80316 9.80802 5.80316 9.80792C5.80316 9.80782 5.80316 9.80772 5.80316 9.80762C5.80316 9.80751 5.80316 9.80741 5.80316 9.80731C5.80316 9.80721 5.80316 9.80711 5.80316 9.80701C5.80316 9.8069 5.80316 9.8068 5.80316 9.8067C5.80316 9.8066 5.80316 9.8065 5.80316 9.8064C5.80316 9.8063 5.80316 9.80619 5.80316 9.80609C5.80316 9.80599 5.80316 9.80589 5.80316 9.80579C5.80316 9.80569 5.80316 9.80558 5.80316 9.80548C5.80316 9.80538 5.80316 9.80528 5.80316 9.80518C5.80316 9.80508 5.80316 9.80497 5.80316 9.80487C5.80316 9.80477 5.80316 9.80467 5.80316 9.80457C5.80316 9.80447 5.80316 9.80437 5.80316 9.80426C5.80316 9.80416 5.80316 9.80406 5.80316 9.80396C5.80316 9.80386 5.80316 9.80376 5.80316 9.80365C5.80316 9.80355 5.80316 9.80345 5.80316 9.80335C5.80316 9.80325 5.80316 9.80315 5.80316 9.80305C5.80316 9.80294 5.80316 9.80284 5.80316 9.80274C5.80316 9.80264 5.80316 9.80254 5.80316 9.80244C5.80316 9.80233 5.80316 9.80223 5.80316 9.80213C5.80316 9.80203 5.80316 9.80193 5.80316 9.80183C5.80316 9.80173 5.80316 9.80162 5.80316 9.80152C5.80316 9.80142 5.80316 9.80132 5.80316 9.80122C5.80316 9.80112 5.80316 9.80101 5.80316 9.80091C5.80316 9.80081 5.80316 9.80071 5.80316 9.80061C5.80316 9.80051 5.80316 9.80041 5.80316 9.8003C5.80316 9.8002 5.80316 9.8001 5.80316 9.8C5.80316 9.7999 5.80316 9.7998 5.80316 9.7997C5.80316 9.79959 5.80316 9.79949 5.80316 9.79939C5.80316 9.79929 5.80316 9.79919 5.80316 9.79909C5.80316 9.79898 5.80316 9.79888 5.80316 9.79878C5.80316 9.79868 5.80316 9.79858 5.80316 9.79848C5.80316 9.79838 5.80316 9.79827 5.80316 9.79817C5.80316 9.79807 5.80316 9.79797 5.80316 9.79787C5.80316 9.79777 5.80316 9.79766 5.80316 9.79756C5.80316 9.79746 5.80316 9.79736 5.80316 9.79726C5.80316 9.79716 5.80316 9.79706 5.80316 9.79695C5.80316 9.79685 5.80316 9.79675 5.80316 9.79665C5.80316 9.79655 5.80316 9.79645 5.80316 9.79634C5.80316 9.79624 5.80316 9.79614 5.80316 9.79604C5.80316 9.79594 5.80316 9.79584 5.80316 9.79574C5.80316 9.79563 5.80316 9.79553 5.80316 9.79543C5.80316 9.79533 5.80316 9.79523 5.80316 9.79513C5.80316 9.79502 5.80316 9.79492 5.80316 9.79482C5.80316 9.79472 5.80316 9.79462 5.80316 9.79452C5.80316 9.79441 5.80316 9.79431 5.80316 9.79421C5.80316 9.79411 5.80316 9.79401 5.80316 9.79391C5.80316 9.79381 5.80316 9.7937 5.80316 9.7936C5.80316 9.7935 5.80316 9.7934 5.80316 9.7933C5.80316 9.7932 5.80316 9.79309 5.80316 9.79299C5.80316 9.79289 5.80316 9.79279 5.80316 9.79269C5.80316 9.79259 5.80316 9.79249 5.80316 9.79238C5.80316 9.79228 5.80316 9.79218 5.80316 9.79208C5.80316 9.79198 5.80316 9.79188 5.80316 9.79177C5.80316 9.79167 5.80316 9.79157 5.80316 9.79147C5.80316 9.79137 5.80316 9.79127 5.80316 9.79117C5.80316 9.79106 5.80316 9.79096 5.80316 9.79086C5.80316 9.79076 5.80316 9.79066 5.80316 9.79056C5.80316 9.79045 5.80316 9.79035 5.80316 9.79025C5.80316 9.79015 5.80316 9.79005 5.80316 9.78995C5.80316 9.78985 5.80316 9.78974 5.80316 9.78964C5.80316 9.78954 5.80316 9.78944 5.80316 9.78934C5.80316 9.78924 5.80316 9.78913 5.80316 9.78903C5.80316 9.78893 5.80316 9.78883 5.80316 9.78873C5.80316 9.78863 5.80316 9.78853 5.80316 9.78842C5.80316 9.78832 5.80316 9.78822 5.80316 9.78812C5.80316 9.78802 5.80316 9.78792 5.80316 9.78782C5.80316 9.78771 5.80316 9.78761 5.80316 9.78751C5.80316 9.78741 5.80316 9.78731 5.80316 9.78721C5.80316 9.7871 5.80316 9.787 5.80316 9.7869C5.80316 9.7868 5.80316 9.7867 5.80316 9.7866C5.80316 9.7865 5.80316 9.78639 5.80316 9.78629C5.80316 9.78619 5.80316 9.78609 5.80316 9.78599C5.80316 9.78589 5.80316 9.78578 5.80316 9.78568C5.80316 9.78558 5.80316 9.78548 5.80316 9.78538C5.80316 9.78528 5.80316 9.78518 5.80316 9.78507C5.80316 9.78497 5.80316 9.78487 5.80316 9.78477C5.80316 9.78467 5.80316 9.78457 5.80316 9.78446C5.80316 9.78436 5.80316 9.78426 5.80316 9.78416C5.80316 9.78406 5.80316 9.78396 5.80316 9.78386C5.80316 9.78375 5.80316 9.78365 5.80316 9.78355C5.80316 9.78345 5.80316 9.78335 5.80316 9.78325C5.80316 9.78314 5.80316 9.78304 5.80316 9.78294C5.80316 9.78284 5.80316 9.78274 5.80316 9.78264C5.80316 9.78253 5.80316 9.78243 5.80316 9.78233C5.80316 9.78223 5.80316 9.78213 5.80316 9.78203C5.80316 9.78193 5.80316 9.78182 5.80316 9.78172C5.80316 9.78162 5.80316 9.78152 5.80316 9.78142C5.80316 9.78132 5.80316 9.78121 5.80316 9.78111C5.80316 9.78101 5.80316 9.78091 5.80316 9.78081C5.80316 9.78071 5.80316 9.78061 5.80316 9.7805C5.80316 9.7804 5.80316 9.7803 5.80316 9.7802C5.80316 9.7801 5.80316 9.78 5.80316 9.77989C5.80316 9.77979 5.80316 9.77969 5.80316 9.77959C5.80316 9.77949 5.80316 9.77939 5.80316 9.77929C5.80316 9.77918 5.80316 9.77908 5.80316 9.77898C5.80316 9.77888 5.80316 9.77878 5.80316 9.77868C5.80316 9.77857 5.80316 9.77847 5.80316 9.77837C5.80316 9.77827 5.80316 9.77817 5.80316 9.77807C5.80316 9.77797 5.80316 9.77786 5.80316 9.77776C5.80316 9.77766 5.80316 9.77756 5.80316 9.77746C5.80316 9.77736 5.80316 9.77726 5.80316 9.77715C5.80316 9.77705 5.80316 9.77695 5.80316 9.77685C5.80316 9.77675 5.80316 9.77665 5.80316 9.77654C5.80316 9.77644 5.80316 9.77634 5.80316 9.77624C5.80316 9.77614 5.80316 9.77604 5.80316 9.77594C5.80316 9.77583 5.80316 9.77573 5.80316 9.77563C5.80316 9.77553 5.80316 9.77543 5.80316 9.77533C5.80316 9.77522 5.80316 9.77512 5.80316 9.77502C5.80316 9.77492 5.80316 9.77482 5.80316 9.77472C5.80316 9.77462 5.80316 9.77451 5.80316 9.77441C5.80316 9.77431 5.80316 9.77421 5.80316 9.77411C5.80316 9.77401 5.80316 9.7739 5.80316 9.7738C5.80316 9.7737 5.80316 9.7736 5.80316 9.7735C5.80316 9.7734 5.80316 9.7733 5.80316 9.77319C5.80316 9.77309 5.80316 9.77299 5.80316 9.77289C5.80316 9.77279 5.80316 9.77269 5.80316 9.77258C5.80316 9.77248 5.80316 9.77238 5.80316 9.77228C5.80316 9.77218 5.80316 9.77208 5.80316 9.77198C5.80316 9.77187 5.80316 9.77177 5.80316 9.77167C5.80316 9.77157 5.80316 9.77147 5.80316 9.77137C5.80316 9.77126 5.80316 9.77116 5.80316 9.77106C5.80316 9.77096 5.80316 9.77086 5.80316 9.77076C5.80316 9.77065 5.80316 9.77055 5.80316 9.77045C5.80316 9.77035 5.80316 9.77025 5.80316 9.77015C5.80316 9.77005 5.80316 9.76994 5.80316 9.76984C5.80316 9.76974 5.80316 9.76964 5.80316 9.76954C5.80316 9.76944 5.80316 9.76933 5.80316 9.76923C5.80316 9.76913 5.80316 9.76903 5.80316 9.76893C5.80316 9.76883 5.80316 9.76873 5.80316 9.76862C5.80316 9.76852 5.80316 9.76842 5.80316 9.76832C5.80316 9.76822 5.80316 9.76812 5.80316 9.76801C5.80316 9.76791 5.80316 9.76781 5.80316 9.76771C5.80316 9.76761 5.80316 9.76751 5.80316 9.76741C5.80316 9.7673 5.80316 9.7672 5.80316 9.7671C5.80316 9.767 5.80316 9.7669 5.80316 9.7668C5.80316 9.7667 5.80316 9.76659 5.80316 9.76649C5.80316 9.76639 5.80316 9.76629 5.80316 9.76619C5.80316 9.76609 5.80316 9.76598 5.80316 9.76588C5.80316 9.76578 5.80316 9.76568 5.80316 9.76558C5.80316 9.76548 5.80316 9.76538 5.80316 9.76527C5.80316 9.76517 5.80316 9.76507 5.80316 9.76497C5.80316 9.76487 5.80316 9.76477 5.80316 9.76466C5.80316 9.76456 5.80316 9.76446 5.80316 9.76436C5.80316 9.76426 5.80316 9.76416 5.80316 9.76406C5.80316 9.76395 5.80316 9.76385 5.80316 9.76375C5.80316 9.76365 5.80316 9.76355 5.80316 9.76345C5.80316 9.76334 5.80316 9.76324 5.80316 9.76314C5.80316 9.76304 5.80316 9.76294 5.80316 9.76284C5.80316 9.76274 5.80316 9.76263 5.80316 9.76253C5.80316 9.76243 5.80316 9.76233 5.80316 9.76223C5.80316 9.76213 5.80316 9.76202 5.80316 9.76192C5.80316 9.76182 5.80316 9.76172 5.80316 9.76162C5.80316 9.76152 5.80316 9.76142 5.80316 9.76131C5.80316 9.76121 5.80316 9.76111 5.80316 9.76101C5.80316 9.76091 5.80316 9.76081 5.80316 9.7607C5.80316 9.7606 5.80316 9.7605 5.80316 9.7604C5.80316 9.7603 5.80316 9.7602 5.80316 9.76009C5.80316 9.75999 5.80316 9.75989 5.80316 9.75979C5.80316 9.75969 5.80316 9.75959 5.80316 9.75949C5.80316 9.75938 5.80316 9.75928 5.80316 9.75918C5.80316 9.75908 5.80316 9.75898 5.80316 9.75888C5.80316 9.75877 5.80316 9.75867 5.80316 9.75857C5.80316 9.75847 5.80316 9.75837 5.80316 9.75827C5.80316 9.75817 5.80316 9.75806 5.80316 9.75796C5.80316 9.75786 5.80316 9.75776 5.80316 9.75766C5.80316 9.75756 5.80316 9.75745 5.80316 9.75735C5.80316 9.75725 5.80316 9.75715 5.80316 9.75705C5.80316 9.75695 5.80316 9.75685 5.80316 9.75674C5.80316 9.75664 5.80316 9.75654 5.80316 9.75644C5.80316 9.75634 5.80316 9.75624 5.80316 9.75613C5.80316 9.75603 5.80316 9.75593 5.80316 9.75583C5.80316 9.75573 5.80316 9.75563 5.80316 9.75553C5.80316 9.75542 5.80316 9.75532 5.80316 9.75522C5.80316 9.75512 5.80316 9.75502 5.80316 9.75492C5.80316 9.75482 5.80316 9.75471 5.80316 9.75461C5.80316 9.75451 5.80316 9.75441 5.80316 9.75431C5.80316 9.75421 5.80316 9.7541 5.80316 9.754C5.80316 9.7539 5.80316 9.7538 5.80316 9.7537C5.80316 9.7536 5.80316 9.7535 5.80316 9.75339C5.80316 9.75329 5.80316 9.75319 5.80316 9.75309C5.80316 9.75299 5.80316 9.75289 5.80316 9.75278C5.80316 9.75268 5.80316 9.75258 5.80316 9.75248C5.80316 9.75238 5.80316 9.75228 5.80316 9.75218C5.80316 9.75207 5.80316 9.75197 5.80316 9.75187C5.80316 9.75177 5.80316 9.75167 5.80316 9.75157C5.80316 9.75146 5.80316 9.75136 5.80316 9.75126C5.80316 9.75116 5.80316 9.75106 5.80316 9.75096C5.80316 9.75086 5.80316 9.75075 5.80316 9.75065C5.80316 9.75055 5.80316 9.75045 5.80316 9.75035C5.80316 9.75025 5.80316 9.75014 5.80316 9.75004C5.80316 9.74994 5.80316 9.74984 5.80316 9.74974C5.80316 9.74964 5.80316 9.74954 5.80316 9.74943C5.80316 9.74933 5.80316 9.74923 5.80316 9.74913C5.80316 9.74903 5.80316 9.74893 5.80316 9.74882C5.80316 9.74872 5.80316 9.74862 5.80316 9.74852C5.80316 9.74842 5.80316 9.74832 5.80316 9.74821C5.80316 9.74811 5.80316 9.74801 5.80316 9.74791C5.80316 9.74781 5.80316 9.74771 5.80316 9.74761C5.80316 9.7475 5.80316 9.7474 5.80316 9.7473C5.80316 9.7472 5.80316 9.7471 5.80316 9.747C5.80316 9.74689 5.80316 9.74679 5.80316 9.74669C5.80316 9.74659 5.80316 9.74649 5.80316 9.74639C5.80316 9.74629 5.80316 9.74618 5.80316 9.74608C5.80316 9.74598 5.80316 9.74588 5.80316 9.74578C5.80316 9.74568 5.80316 9.74557 5.80316 9.74547C5.80316 9.74537 5.80316 9.74527 5.80316 9.74517C5.80316 9.74507 5.80316 9.74497 5.80316 9.74486C5.80316 9.74476 5.80316 9.74466 5.80316 9.74456C5.80316 9.74446 5.80316 9.74436 5.80316 9.74426C5.80316 9.74415 5.80316 9.74405 5.80316 9.74395C5.80316 9.74385 5.80316 9.74375 5.80316 9.74365C5.80316 9.74354 5.80316 9.74344 5.80316 9.74334C5.80316 9.74324 5.80316 9.74314 5.80316 9.74304C5.80316 9.74294 5.80316 9.74283 5.80316 9.74273C5.80316 9.74263 5.80316 9.74253 5.80316 9.74243C5.80316 9.74233 5.80316 9.74222 5.80316 9.74212C5.80316 9.74202 5.80316 9.74192 5.80316 9.74182C5.80316 9.74172 5.80316 9.74162 5.80316 9.74151C5.80316 9.74141 5.80316 9.74131 5.80316 9.74121C5.80316 9.74111 5.80316 9.74101 5.80316 9.7409C5.80316 9.7408 5.80316 9.7407 5.80316 9.7406C5.80316 9.7405 5.80316 9.7404 5.80316 9.7403C5.80316 9.74019 5.80316 9.74009 5.80316 9.73999C5.80316 9.73989 5.80316 9.73979 5.80316 9.73969C5.80316 9.73958 5.80316 9.73948 5.80316 9.73938C5.80316 9.73928 5.80316 9.73918 5.80316 9.73908C5.80316 9.73898 5.80316 9.73887 5.80316 9.73877C5.80316 9.73867 5.80316 9.73857 5.80316 9.73847C5.80316 9.73837 5.80316 9.73826 5.80316 9.73816C5.80316 9.73806 5.80316 9.73796 5.80316 9.73786C5.80316 9.73776 5.80316 9.73766 5.80316 9.73755C5.80316 9.73745 5.80316 9.73735 5.80316 9.73725C5.80316 9.73715 5.80316 9.73705 5.80316 9.73694C5.80316 9.73684 5.80316 9.73674 5.80316 9.73664C5.80316 9.73654 5.80316 9.73644 5.80316 9.73633C5.80316 9.73623 5.80316 9.73613 5.80316 9.73603C5.80316 9.73593 5.80316 9.73583 5.80316 9.73573C5.80316 9.73562 5.80316 9.73552 5.80316 9.73542C5.80316 9.73532 5.80316 9.73522 5.80316 9.73512C5.80316 9.73501 5.80316 9.73491 5.80316 9.73481C5.80316 9.73471 5.80316 9.73461 5.80316 9.73451C5.80316 9.73441 5.80316 9.7343 5.80316 9.7342C5.80316 9.7341 5.80316 9.734 5.80316 9.7339C5.80316 9.7338 5.80316 9.7337 5.80316 9.73359C5.80316 9.73349 5.80316 9.73339 5.80316 9.73329C5.80316 9.73319 5.80316 9.73309 5.80316 9.73298C5.80316 9.73288 5.80316 9.73278 5.80316 9.73268C5.80316 9.73258 5.80316 9.73248 5.80316 9.73238C5.80316 9.73227 5.80316 9.73217 5.80316 9.73207C5.80316 9.73197 5.80316 9.73187 5.80316 9.73177C5.80316 9.73166 5.80316 9.73156 5.80316 9.73146C5.80316 9.73136 5.80316 9.73126 5.80316 9.73116C5.80316 9.73106 5.80316 9.73095 5.80316 9.73085C5.80316 9.73075 5.80316 9.73065 5.80316 9.73055C5.80316 9.73045 5.80316 9.73034 5.80316 9.73024C5.80316 9.73014 5.80316 9.73004 5.80316 9.72994C5.80316 9.72984 5.80316 9.72974 5.80316 9.72963C5.80316 9.72953 5.80316 9.72943 5.80316 9.72933C5.80316 9.72923 5.80316 9.72913 5.80316 9.72902C5.80316 9.72892 5.80316 9.72882 5.80316 9.72872C5.80316 9.72862 5.80316 9.72852 5.80316 9.72842C5.80316 9.72831 5.80316 9.72821 5.80316 9.72811C5.80316 9.72801 5.80316 9.72791 5.80316 9.72781C5.80316 9.7277 5.80316 9.7276 5.80316 9.7275C5.80316 9.7274 5.80316 9.7273 5.80316 9.7272C5.80316 9.7271 5.80316 9.72699 5.80316 9.72689C5.80316 9.72679 5.80316 9.72669 5.80316 9.72659C5.80316 9.72649 5.80316 9.72638 5.80316 9.72628C5.80316 9.72618 5.80316 9.72608 5.80316 9.72598C5.80316 9.72588 5.80316 9.72578 5.80316 9.72567C5.80316 9.72557 5.80316 9.72547 5.80316 9.72537C5.80316 9.72527 5.80316 9.72517 5.80316 9.72506C5.80316 9.72496 5.80316 9.72486 5.80316 9.72476C5.80316 9.72466 5.80316 9.72456 5.80316 9.72445C5.80316 9.72435 5.80316 9.72425 5.80316 9.72415C5.80316 9.72405 5.80316 9.72395 5.80316 9.72385C5.80316 9.72374 5.80316 9.72364 5.80316 9.72354C5.80316 9.72344 5.80316 9.72334 5.80316 9.72324C5.80316 9.72313 5.80316 9.72303 5.80316 9.72293C5.80316 9.72283 5.80316 9.72273 5.80316 9.72263C5.80316 9.72253 5.80316 9.72242 5.80316 9.72232C5.80316 9.72222 5.80316 9.72212 5.80316 9.72202C5.80316 9.72192 5.80316 9.72182 5.80316 9.72171C5.80316 9.72161 5.80316 9.72151 5.80316 9.72141C5.80316 9.72131 5.80316 9.72121 5.80316 9.7211C5.80316 9.721 5.80316 9.7209 5.80316 9.7208C5.80316 9.7207 5.80316 9.7206 5.80316 9.7205C5.80316 9.72039 5.80316 9.72029 5.80316 9.72019C5.80316 9.72009 5.80316 9.71999 5.80316 9.71989C5.80316 9.71978 5.80316 9.71968 5.80316 9.71958C5.80316 9.71948 5.80316 9.71938 5.80316 9.71928C5.80316 9.71918 5.80316 9.71907 5.80316 9.71897C5.80316 9.71887 5.80316 9.71877 5.80316 9.71867C5.80316 9.71857 5.80316 9.71846 5.80316 9.71836C5.80316 9.71826 5.80316 9.71816 5.80316 9.71806C5.80316 9.71796 5.80316 9.71786 5.80316 9.71775C5.80316 9.71765 5.80316 9.71755 5.80316 9.71745C5.80316 9.71735 5.80316 9.71725 5.80316 9.71714C5.80316 9.71704 5.80316 9.71694 5.80316 9.71684C5.80316 9.71674 5.80316 9.71664 5.80316 9.71654C5.80316 9.71643 5.80316 9.71633 5.80316 9.71623C5.80316 9.71613 5.80316 9.71603 5.80316 9.71593C5.80316 9.71582 5.80316 9.71572 5.80316 9.71562C5.80316 9.71552 5.80316 9.71542 5.80316 9.71532C5.80316 9.71522 5.80316 9.71511 5.80316 9.71501C5.80316 9.71491 5.80316 9.71481 5.80316 9.71471C5.80316 9.71461 5.80316 9.7145 5.80316 9.7144C5.80316 9.7143 5.80316 9.7142 5.80316 9.7141C5.80316 9.714 5.80316 9.7139 5.80316 9.71379C5.80316 9.71369 5.80316 9.71359 5.80316 9.71349C5.80316 9.71339 5.80316 9.71329 5.80316 9.71318C5.80316 9.71308 5.80316 9.71298 5.80316 9.71288C5.80316 9.71278 5.80316 9.71268 5.80316 9.71257C5.80316 9.71247 5.80316 9.71237 5.80316 9.71227C5.80316 9.71217 5.80316 9.71207 5.80316 9.71197C5.80316 9.71186 5.80316 9.71176 5.80316 9.71166C5.80316 9.71156 5.80316 9.71146 5.80316 9.71136C5.80316 9.71126 5.80316 9.71115 5.80316 9.71105C5.80316 9.71095 5.80316 9.71085 5.80316 9.71075C5.80316 9.71065 5.80316 9.71054 5.80316 9.71044C5.80316 9.71034 5.80316 9.71024 5.80316 9.71014C5.80316 9.71004 5.80316 9.70994 5.80316 9.70983C5.80316 9.70973 5.80316 9.70963 5.80316 9.70953C5.80316 9.70943 5.80316 9.70933 5.80316 9.70922C5.80316 9.70912 5.80316 9.70902 5.80316 9.70892C5.80316 9.70882 5.80316 9.70872 5.80316 9.70862C5.80316 9.70851 5.80316 9.70841 5.80316 9.70831C5.80316 9.70821 5.80316 9.70811 5.80316 9.70801C5.80316 9.7079 5.80316 9.7078 5.80316 9.7077C5.80316 9.7076 5.80316 9.7075 5.80316 9.7074C5.80316 9.7073 5.80316 9.70719 5.80316 9.70709C5.80316 9.70699 5.80316 9.70689 5.80316 9.70679C5.80316 9.70669 5.80316 9.70658 5.80316 9.70648C5.80316 9.70638 5.80316 9.70628 5.80316 9.70618C5.80316 9.70608 5.80316 9.70598 5.80316 9.70587C5.80316 9.70577 5.80316 9.70567 5.80316 9.70557C5.80316 9.70547 5.80316 9.70537 5.80316 9.70527C5.80316 9.70516 5.80316 9.70506 5.80316 9.70496C5.80316 9.70486 5.80316 9.70476 5.80316 9.70466C5.80316 9.70455 5.80316 9.70445 5.80316 9.70435C5.80316 9.70425 5.80316 9.70415 5.80316 9.70405C5.80316 9.70394 5.80316 9.70384 5.80316 9.70374C5.80316 9.70364 5.80316 9.70354 5.80316 9.70344C5.80316 9.70334 5.80316 9.70323 5.80316 9.70313C5.80316 9.70303 5.80316 9.70293 5.80316 9.70283C5.80316 9.70273 5.80316 9.70262 5.80316 9.70252C5.80316 9.70242 5.80316 9.70232 5.80316 9.70222C5.80316 9.70212 5.80316 9.70202 5.80316 9.70191C5.80316 9.70181 5.80316 9.70171 5.80316 9.70161C5.80316 9.70151 5.80316 9.70141 5.80316 9.7013C5.80316 9.7012 5.80316 9.7011 5.80316 9.701C5.80316 9.7009 5.80316 9.7008 5.80316 9.7007C5.80316 9.70059 5.80316 9.70049 5.80316 9.70039C5.80316 9.70029 5.80316 9.70019 5.80316 9.70009C5.80316 9.69998 5.80316 9.69988 5.80316 9.69978C5.80316 9.69968 5.80316 9.69958 5.80316 9.69948C5.80316 9.69938 5.80316 9.69927 5.80316 9.69917C5.80316 9.69907 5.80316 9.69897 5.80316 9.69887C5.80316 9.69877 5.80316 9.69866 5.80316 9.69856C5.80316 9.69846 5.80316 9.69836 5.80316 9.69826C5.80316 9.69816 5.80316 9.69806 5.80316 9.69795C5.80316 9.69785 5.80316 9.69775 5.80316 9.69765C5.80316 9.69755 5.80316 9.69745 5.80316 9.69734C5.80316 9.69724 5.80316 9.69714 5.80316 9.69704C5.80316 9.69694 5.80316 9.69684 5.80316 9.69674C5.80316 9.69663 5.80316 9.69653 5.80316 9.69643C5.80316 9.69633 5.80316 9.69623 5.80316 9.69613C5.80316 9.69602 5.80316 9.69592 5.80316 9.69582C5.80316 9.69572 5.80316 9.69562 5.80316 9.69552C5.80316 9.69542 5.80316 9.69531 5.80316 9.69521C5.80316 9.69511 5.80316 9.69501 5.80316 9.69491C5.80316 9.69481 5.80316 9.69471 5.80316 9.6946C5.80316 9.6945 5.80316 9.6944 5.80316 9.6943C5.80316 9.6942 5.80316 9.6941 5.80316 9.69399C5.80316 9.69389 5.80316 9.69379 5.80316 9.69369C5.80316 9.69359 5.80316 9.69349 5.80316 9.69339C5.80316 9.69328 5.80316 9.69318 5.80316 9.69308C5.80316 9.69298 5.80316 9.69288 5.80316 9.69278C5.80316 9.69267 5.80316 9.69257 5.80316 9.69247C5.80316 9.69237 5.80316 9.69227 5.80316 9.69217C5.80316 9.69206 5.80316 9.69196 5.80316 9.69186C5.80316 9.69176 5.80316 9.69166 5.80316 9.69156C5.80316 9.69146 5.80316 9.69135 5.80316 9.69125C5.80316 9.69115 5.80316 9.69105 5.80316 9.69095C5.80316 9.69085 5.80316 9.69074 5.80316 9.69064C5.80316 9.69054 5.80316 9.69044 5.80316 9.69034C5.80316 9.69024 5.80316 9.69014 5.80316 9.69003C5.80316 9.68993 5.80316 9.68983 5.80316 9.68973C5.80316 9.68963 5.80316 9.68953 5.80316 9.68942C5.80316 9.68932 5.80316 9.68922 5.80316 9.68912C5.80316 9.68902 5.80316 9.68892 5.80316 9.68882C5.80316 9.68871 5.80316 9.68861 5.80316 9.68851C5.80316 9.68841 5.80316 9.68831 5.80316 9.68821C5.80316 9.6881 5.80316 9.688 5.80316 9.6879C5.80316 9.6878 5.80316 9.6877 5.80316 9.6876C5.80316 9.6875 5.80316 9.68739 5.80316 9.68729C5.80316 9.68719 5.80316 9.68709 5.80316 9.68699C5.80316 9.68689 5.80316 9.68678 5.80316 9.68668C5.80316 9.68658 5.80316 9.68648 5.80316 9.68638C5.80316 9.68628 5.80316 9.68618 5.80316 9.68607C5.80316 9.68597 5.80316 9.68587 5.80316 9.68577C5.80316 9.68567 5.80316 9.68557 5.80316 9.68546C5.80316 9.68536 5.80316 9.68526 5.80316 9.68516C5.80316 9.68506 5.80316 9.68496 5.80316 9.68486C5.80316 9.68475 5.80316 9.68465 5.80316 9.68455C5.80316 9.68445 5.80316 9.68435 5.80316 9.68425C5.80316 9.68414 5.80316 9.68404 5.80316 9.68394C5.80316 9.68384 5.80316 9.68374 5.80316 9.68364C5.80316 9.68354 5.80316 9.68343 5.80316 9.68333C5.80316 9.68323 5.80316 9.68313 5.80316 9.68303C5.80316 9.68293 5.80316 9.68283 5.80316 9.68272C5.80316 9.68262 5.80316 9.68252 5.80316 9.68242C5.80316 9.68232 5.80316 9.68222 5.80316 9.68211C5.80316 9.68201 5.80316 9.68191 5.80316 9.68181C5.80316 9.68171 5.80316 9.68161 5.80316 9.68151C5.80316 9.6814 5.80316 9.6813 5.80316 9.6812C5.80316 9.6811 5.80316 9.681 5.80316 9.6809C5.80316 9.68079 5.80316 9.68069 5.80316 9.68059C5.80316 9.68049 5.80316 9.68039 5.80316 9.68029C5.80316 9.68018 5.80316 9.68008 5.80316 9.67998C5.80316 9.67988 5.80316 9.67978 5.80316 9.67968C5.80316 9.67958 5.80316 9.67947 5.80316 9.67937C5.80316 9.67927 5.80316 9.67917 5.80316 9.67907C5.80316 9.67897 5.80316 9.67886 5.80316 9.67876C5.80316 9.67866 5.80316 9.67856 5.80316 9.67846C5.80316 9.67836 5.80316 9.67826 5.80316 9.67815C5.80316 9.67805 5.80316 9.67795 5.80316 9.67785C5.80316 9.67775 5.80316 9.67765 5.80316 9.67754C5.80316 9.67744 5.80316 9.67734 5.80316 9.67724C5.80316 9.67714 5.80316 9.67704 5.80316 9.67694C5.80316 9.67683 5.80316 9.67673 5.80316 9.67663C5.80316 9.67653 5.80316 9.67643 5.80316 9.67633C5.80316 9.67622 5.80316 9.67612 5.80316 9.67602C5.80316 9.67592 5.80316 9.67582 5.80316 9.67572C5.80316 9.67562 5.80316 9.67551 5.80316 9.67541C5.80316 9.67531 5.80316 9.67521 5.80316 9.67511C5.80316 9.67501 5.80316 9.6749 5.80316 9.6748C5.80316 9.6747 5.80316 9.6746 5.80316 9.6745C5.80316 9.6744 5.80316 9.6743 5.80316 9.67419C5.80316 9.67409 5.80316 9.67399 5.80316 9.67389C5.80316 9.67379 5.80316 9.67369 5.80316 9.67358C5.80316 9.67348 5.80316 9.67338 5.80316 9.67328C5.80316 9.67318 5.80316 9.67308 5.80316 9.67298C5.80316 9.67287 5.80316 9.67277 5.80316 9.67267C5.80316 9.67257 5.80316 9.67247 5.80316 9.67237C5.80316 9.67227 5.80316 9.67216 5.80316 9.67206C5.80316 9.67196 5.80316 9.67186 5.80316 9.67176C5.80316 9.67166 5.80316 9.67155 5.80316 9.67145C5.80316 9.67135 5.80316 9.67125 5.80316 9.67115C5.80316 9.67105 5.80316 9.67095 5.80316 9.67084C5.80316 9.67074 5.80316 9.67064 5.80316 9.67054C5.80316 9.67044 5.80316 9.67034 5.80316 9.67023C5.80316 9.67013 5.80316 9.67003 5.80316 9.66993C5.80316 9.66983 5.80316 9.66973 5.80316 9.66962H4.30316C4.30316 9.66973 4.30316 9.66983 4.30316 9.66993C4.30316 9.67003 4.30316 9.67013 4.30316 9.67023C4.30316 9.67034 4.30316 9.67044 4.30316 9.67054C4.30316 9.67064 4.30316 9.67074 4.30316 9.67084C4.30316 9.67095 4.30316 9.67105 4.30316 9.67115C4.30316 9.67125 4.30316 9.67135 4.30316 9.67145C4.30316 9.67155 4.30316 9.67166 4.30316 9.67176C4.30316 9.67186 4.30316 9.67196 4.30316 9.67206C4.30316 9.67216 4.30316 9.67227 4.30316 9.67237C4.30316 9.67247 4.30316 9.67257 4.30316 9.67267C4.30316 9.67277 4.30316 9.67287 4.30316 9.67298C4.30316 9.67308 4.30316 9.67318 4.30316 9.67328C4.30316 9.67338 4.30316 9.67348 4.30316 9.67358C4.30316 9.67369 4.30316 9.67379 4.30316 9.67389C4.30316 9.67399 4.30316 9.67409 4.30316 9.67419C4.30316 9.6743 4.30316 9.6744 4.30316 9.6745C4.30316 9.6746 4.30316 9.6747 4.30316 9.6748C4.30316 9.6749 4.30316 9.67501 4.30316 9.67511C4.30316 9.67521 4.30316 9.67531 4.30316 9.67541C4.30316 9.67551 4.30316 9.67562 4.30316 9.67572C4.30316 9.67582 4.30316 9.67592 4.30316 9.67602C4.30316 9.67612 4.30316 9.67622 4.30316 9.67633C4.30316 9.67643 4.30316 9.67653 4.30316 9.67663C4.30316 9.67673 4.30316 9.67683 4.30316 9.67694C4.30316 9.67704 4.30316 9.67714 4.30316 9.67724C4.30316 9.67734 4.30316 9.67744 4.30316 9.67754C4.30316 9.67765 4.30316 9.67775 4.30316 9.67785C4.30316 9.67795 4.30316 9.67805 4.30316 9.67815C4.30316 9.67826 4.30316 9.67836 4.30316 9.67846C4.30316 9.67856 4.30316 9.67866 4.30316 9.67876C4.30316 9.67886 4.30316 9.67897 4.30316 9.67907C4.30316 9.67917 4.30316 9.67927 4.30316 9.67937C4.30316 9.67947 4.30316 9.67958 4.30316 9.67968C4.30316 9.67978 4.30316 9.67988 4.30316 9.67998C4.30316 9.68008 4.30316 9.68018 4.30316 9.68029C4.30316 9.68039 4.30316 9.68049 4.30316 9.68059C4.30316 9.68069 4.30316 9.68079 4.30316 9.6809C4.30316 9.681 4.30316 9.6811 4.30316 9.6812C4.30316 9.6813 4.30316 9.6814 4.30316 9.68151C4.30316 9.68161 4.30316 9.68171 4.30316 9.68181C4.30316 9.68191 4.30316 9.68201 4.30316 9.68211C4.30316 9.68222 4.30316 9.68232 4.30316 9.68242C4.30316 9.68252 4.30316 9.68262 4.30316 9.68272C4.30316 9.68283 4.30316 9.68293 4.30316 9.68303C4.30316 9.68313 4.30316 9.68323 4.30316 9.68333C4.30316 9.68343 4.30316 9.68354 4.30316 9.68364C4.30316 9.68374 4.30316 9.68384 4.30316 9.68394C4.30316 9.68404 4.30316 9.68414 4.30316 9.68425C4.30316 9.68435 4.30316 9.68445 4.30316 9.68455C4.30316 9.68465 4.30316 9.68475 4.30316 9.68486C4.30316 9.68496 4.30316 9.68506 4.30316 9.68516C4.30316 9.68526 4.30316 9.68536 4.30316 9.68546C4.30316 9.68557 4.30316 9.68567 4.30316 9.68577C4.30316 9.68587 4.30316 9.68597 4.30316 9.68607C4.30316 9.68618 4.30316 9.68628 4.30316 9.68638C4.30316 9.68648 4.30316 9.68658 4.30316 9.68668C4.30316 9.68678 4.30316 9.68689 4.30316 9.68699C4.30316 9.68709 4.30316 9.68719 4.30316 9.68729C4.30316 9.68739 4.30316 9.6875 4.30316 9.6876C4.30316 9.6877 4.30316 9.6878 4.30316 9.6879C4.30316 9.688 4.30316 9.6881 4.30316 9.68821C4.30316 9.68831 4.30316 9.68841 4.30316 9.68851C4.30316 9.68861 4.30316 9.68871 4.30316 9.68882C4.30316 9.68892 4.30316 9.68902 4.30316 9.68912C4.30316 9.68922 4.30316 9.68932 4.30316 9.68942C4.30316 9.68953 4.30316 9.68963 4.30316 9.68973C4.30316 9.68983 4.30316 9.68993 4.30316 9.69003C4.30316 9.69014 4.30316 9.69024 4.30316 9.69034C4.30316 9.69044 4.30316 9.69054 4.30316 9.69064C4.30316 9.69074 4.30316 9.69085 4.30316 9.69095C4.30316 9.69105 4.30316 9.69115 4.30316 9.69125C4.30316 9.69135 4.30316 9.69146 4.30316 9.69156C4.30316 9.69166 4.30316 9.69176 4.30316 9.69186C4.30316 9.69196 4.30316 9.69206 4.30316 9.69217C4.30316 9.69227 4.30316 9.69237 4.30316 9.69247C4.30316 9.69257 4.30316 9.69267 4.30316 9.69278C4.30316 9.69288 4.30316 9.69298 4.30316 9.69308C4.30316 9.69318 4.30316 9.69328 4.30316 9.69339C4.30316 9.69349 4.30316 9.69359 4.30316 9.69369C4.30316 9.69379 4.30316 9.69389 4.30316 9.69399C4.30316 9.6941 4.30316 9.6942 4.30316 9.6943C4.30316 9.6944 4.30316 9.6945 4.30316 9.6946C4.30316 9.69471 4.30316 9.69481 4.30316 9.69491C4.30316 9.69501 4.30316 9.69511 4.30316 9.69521C4.30316 9.69531 4.30316 9.69542 4.30316 9.69552C4.30316 9.69562 4.30316 9.69572 4.30316 9.69582C4.30316 9.69592 4.30316 9.69602 4.30316 9.69613C4.30316 9.69623 4.30316 9.69633 4.30316 9.69643C4.30316 9.69653 4.30316 9.69663 4.30316 9.69674C4.30316 9.69684 4.30316 9.69694 4.30316 9.69704C4.30316 9.69714 4.30316 9.69724 4.30316 9.69734C4.30316 9.69745 4.30316 9.69755 4.30316 9.69765C4.30316 9.69775 4.30316 9.69785 4.30316 9.69795C4.30316 9.69806 4.30316 9.69816 4.30316 9.69826C4.30316 9.69836 4.30316 9.69846 4.30316 9.69856C4.30316 9.69866 4.30316 9.69877 4.30316 9.69887C4.30316 9.69897 4.30316 9.69907 4.30316 9.69917C4.30316 9.69927 4.30316 9.69938 4.30316 9.69948C4.30316 9.69958 4.30316 9.69968 4.30316 9.69978C4.30316 9.69988 4.30316 9.69998 4.30316 9.70009C4.30316 9.70019 4.30316 9.70029 4.30316 9.70039C4.30316 9.70049 4.30316 9.70059 4.30316 9.7007C4.30316 9.7008 4.30316 9.7009 4.30316 9.701C4.30316 9.7011 4.30316 9.7012 4.30316 9.7013C4.30316 9.70141 4.30316 9.70151 4.30316 9.70161C4.30316 9.70171 4.30316 9.70181 4.30316 9.70191C4.30316 9.70202 4.30316 9.70212 4.30316 9.70222C4.30316 9.70232 4.30316 9.70242 4.30316 9.70252C4.30316 9.70262 4.30316 9.70273 4.30316 9.70283C4.30316 9.70293 4.30316 9.70303 4.30316 9.70313C4.30316 9.70323 4.30316 9.70334 4.30316 9.70344C4.30316 9.70354 4.30316 9.70364 4.30316 9.70374C4.30316 9.70384 4.30316 9.70394 4.30316 9.70405C4.30316 9.70415 4.30316 9.70425 4.30316 9.70435C4.30316 9.70445 4.30316 9.70455 4.30316 9.70466C4.30316 9.70476 4.30316 9.70486 4.30316 9.70496C4.30316 9.70506 4.30316 9.70516 4.30316 9.70527C4.30316 9.70537 4.30316 9.70547 4.30316 9.70557C4.30316 9.70567 4.30316 9.70577 4.30316 9.70587C4.30316 9.70598 4.30316 9.70608 4.30316 9.70618C4.30316 9.70628 4.30316 9.70638 4.30316 9.70648C4.30316 9.70658 4.30316 9.70669 4.30316 9.70679C4.30316 9.70689 4.30316 9.70699 4.30316 9.70709C4.30316 9.70719 4.30316 9.7073 4.30316 9.7074C4.30316 9.7075 4.30316 9.7076 4.30316 9.7077C4.30316 9.7078 4.30316 9.7079 4.30316 9.70801C4.30316 9.70811 4.30316 9.70821 4.30316 9.70831C4.30316 9.70841 4.30316 9.70851 4.30316 9.70862C4.30316 9.70872 4.30316 9.70882 4.30316 9.70892C4.30316 9.70902 4.30316 9.70912 4.30316 9.70922C4.30316 9.70933 4.30316 9.70943 4.30316 9.70953C4.30316 9.70963 4.30316 9.70973 4.30316 9.70983C4.30316 9.70994 4.30316 9.71004 4.30316 9.71014C4.30316 9.71024 4.30316 9.71034 4.30316 9.71044C4.30316 9.71054 4.30316 9.71065 4.30316 9.71075C4.30316 9.71085 4.30316 9.71095 4.30316 9.71105C4.30316 9.71115 4.30316 9.71126 4.30316 9.71136C4.30316 9.71146 4.30316 9.71156 4.30316 9.71166C4.30316 9.71176 4.30316 9.71186 4.30316 9.71197C4.30316 9.71207 4.30316 9.71217 4.30316 9.71227C4.30316 9.71237 4.30316 9.71247 4.30316 9.71257C4.30316 9.71268 4.30316 9.71278 4.30316 9.71288C4.30316 9.71298 4.30316 9.71308 4.30316 9.71318C4.30316 9.71329 4.30316 9.71339 4.30316 9.71349C4.30316 9.71359 4.30316 9.71369 4.30316 9.71379C4.30316 9.7139 4.30316 9.714 4.30316 9.7141C4.30316 9.7142 4.30316 9.7143 4.30316 9.7144C4.30316 9.7145 4.30316 9.71461 4.30316 9.71471C4.30316 9.71481 4.30316 9.71491 4.30316 9.71501C4.30316 9.71511 4.30316 9.71522 4.30316 9.71532C4.30316 9.71542 4.30316 9.71552 4.30316 9.71562C4.30316 9.71572 4.30316 9.71582 4.30316 9.71593C4.30316 9.71603 4.30316 9.71613 4.30316 9.71623C4.30316 9.71633 4.30316 9.71643 4.30316 9.71654C4.30316 9.71664 4.30316 9.71674 4.30316 9.71684C4.30316 9.71694 4.30316 9.71704 4.30316 9.71714C4.30316 9.71725 4.30316 9.71735 4.30316 9.71745C4.30316 9.71755 4.30316 9.71765 4.30316 9.71775C4.30316 9.71786 4.30316 9.71796 4.30316 9.71806C4.30316 9.71816 4.30316 9.71826 4.30316 9.71836C4.30316 9.71846 4.30316 9.71857 4.30316 9.71867C4.30316 9.71877 4.30316 9.71887 4.30316 9.71897C4.30316 9.71907 4.30316 9.71918 4.30316 9.71928C4.30316 9.71938 4.30316 9.71948 4.30316 9.71958C4.30316 9.71968 4.30316 9.71978 4.30316 9.71989C4.30316 9.71999 4.30316 9.72009 4.30316 9.72019C4.30316 9.72029 4.30316 9.72039 4.30316 9.7205C4.30316 9.7206 4.30316 9.7207 4.30316 9.7208C4.30316 9.7209 4.30316 9.721 4.30316 9.7211C4.30316 9.72121 4.30316 9.72131 4.30316 9.72141C4.30316 9.72151 4.30316 9.72161 4.30316 9.72171C4.30316 9.72182 4.30316 9.72192 4.30316 9.72202C4.30316 9.72212 4.30316 9.72222 4.30316 9.72232C4.30316 9.72242 4.30316 9.72253 4.30316 9.72263C4.30316 9.72273 4.30316 9.72283 4.30316 9.72293C4.30316 9.72303 4.30316 9.72313 4.30316 9.72324C4.30316 9.72334 4.30316 9.72344 4.30316 9.72354C4.30316 9.72364 4.30316 9.72374 4.30316 9.72385C4.30316 9.72395 4.30316 9.72405 4.30316 9.72415C4.30316 9.72425 4.30316 9.72435 4.30316 9.72445C4.30316 9.72456 4.30316 9.72466 4.30316 9.72476C4.30316 9.72486 4.30316 9.72496 4.30316 9.72506C4.30316 9.72517 4.30316 9.72527 4.30316 9.72537C4.30316 9.72547 4.30316 9.72557 4.30316 9.72567C4.30316 9.72578 4.30316 9.72588 4.30316 9.72598C4.30316 9.72608 4.30316 9.72618 4.30316 9.72628C4.30316 9.72638 4.30316 9.72649 4.30316 9.72659C4.30316 9.72669 4.30316 9.72679 4.30316 9.72689C4.30316 9.72699 4.30316 9.7271 4.30316 9.7272C4.30316 9.7273 4.30316 9.7274 4.30316 9.7275C4.30316 9.7276 4.30316 9.7277 4.30316 9.72781C4.30316 9.72791 4.30316 9.72801 4.30316 9.72811C4.30316 9.72821 4.30316 9.72831 4.30316 9.72842C4.30316 9.72852 4.30316 9.72862 4.30316 9.72872C4.30316 9.72882 4.30316 9.72892 4.30316 9.72902C4.30316 9.72913 4.30316 9.72923 4.30316 9.72933C4.30316 9.72943 4.30316 9.72953 4.30316 9.72963C4.30316 9.72974 4.30316 9.72984 4.30316 9.72994C4.30316 9.73004 4.30316 9.73014 4.30316 9.73024C4.30316 9.73034 4.30316 9.73045 4.30316 9.73055C4.30316 9.73065 4.30316 9.73075 4.30316 9.73085C4.30316 9.73095 4.30316 9.73106 4.30316 9.73116C4.30316 9.73126 4.30316 9.73136 4.30316 9.73146C4.30316 9.73156 4.30316 9.73166 4.30316 9.73177C4.30316 9.73187 4.30316 9.73197 4.30316 9.73207C4.30316 9.73217 4.30316 9.73227 4.30316 9.73238C4.30316 9.73248 4.30316 9.73258 4.30316 9.73268C4.30316 9.73278 4.30316 9.73288 4.30316 9.73298C4.30316 9.73309 4.30316 9.73319 4.30316 9.73329C4.30316 9.73339 4.30316 9.73349 4.30316 9.73359C4.30316 9.7337 4.30316 9.7338 4.30316 9.7339C4.30316 9.734 4.30316 9.7341 4.30316 9.7342C4.30316 9.7343 4.30316 9.73441 4.30316 9.73451C4.30316 9.73461 4.30316 9.73471 4.30316 9.73481C4.30316 9.73491 4.30316 9.73501 4.30316 9.73512C4.30316 9.73522 4.30316 9.73532 4.30316 9.73542C4.30316 9.73552 4.30316 9.73562 4.30316 9.73573C4.30316 9.73583 4.30316 9.73593 4.30316 9.73603C4.30316 9.73613 4.30316 9.73623 4.30316 9.73633C4.30316 9.73644 4.30316 9.73654 4.30316 9.73664C4.30316 9.73674 4.30316 9.73684 4.30316 9.73694C4.30316 9.73705 4.30316 9.73715 4.30316 9.73725C4.30316 9.73735 4.30316 9.73745 4.30316 9.73755C4.30316 9.73766 4.30316 9.73776 4.30316 9.73786C4.30316 9.73796 4.30316 9.73806 4.30316 9.73816C4.30316 9.73826 4.30316 9.73837 4.30316 9.73847C4.30316 9.73857 4.30316 9.73867 4.30316 9.73877C4.30316 9.73887 4.30316 9.73898 4.30316 9.73908C4.30316 9.73918 4.30316 9.73928 4.30316 9.73938C4.30316 9.73948 4.30316 9.73958 4.30316 9.73969C4.30316 9.73979 4.30316 9.73989 4.30316 9.73999C4.30316 9.74009 4.30316 9.74019 4.30316 9.7403C4.30316 9.7404 4.30316 9.7405 4.30316 9.7406C4.30316 9.7407 4.30316 9.7408 4.30316 9.7409C4.30316 9.74101 4.30316 9.74111 4.30316 9.74121C4.30316 9.74131 4.30316 9.74141 4.30316 9.74151C4.30316 9.74162 4.30316 9.74172 4.30316 9.74182C4.30316 9.74192 4.30316 9.74202 4.30316 9.74212C4.30316 9.74222 4.30316 9.74233 4.30316 9.74243C4.30316 9.74253 4.30316 9.74263 4.30316 9.74273C4.30316 9.74283 4.30316 9.74294 4.30316 9.74304C4.30316 9.74314 4.30316 9.74324 4.30316 9.74334C4.30316 9.74344 4.30316 9.74354 4.30316 9.74365C4.30316 9.74375 4.30316 9.74385 4.30316 9.74395C4.30316 9.74405 4.30316 9.74415 4.30316 9.74426C4.30316 9.74436 4.30316 9.74446 4.30316 9.74456C4.30316 9.74466 4.30316 9.74476 4.30316 9.74486C4.30316 9.74497 4.30316 9.74507 4.30316 9.74517C4.30316 9.74527 4.30316 9.74537 4.30316 9.74547C4.30316 9.74557 4.30316 9.74568 4.30316 9.74578C4.30316 9.74588 4.30316 9.74598 4.30316 9.74608C4.30316 9.74618 4.30316 9.74629 4.30316 9.74639C4.30316 9.74649 4.30316 9.74659 4.30316 9.74669C4.30316 9.74679 4.30316 9.74689 4.30316 9.747C4.30316 9.7471 4.30316 9.7472 4.30316 9.7473C4.30316 9.7474 4.30316 9.7475 4.30316 9.74761C4.30316 9.74771 4.30316 9.74781 4.30316 9.74791C4.30316 9.74801 4.30316 9.74811 4.30316 9.74821C4.30316 9.74832 4.30316 9.74842 4.30316 9.74852C4.30316 9.74862 4.30316 9.74872 4.30316 9.74882C4.30316 9.74893 4.30316 9.74903 4.30316 9.74913C4.30316 9.74923 4.30316 9.74933 4.30316 9.74943C4.30316 9.74954 4.30316 9.74964 4.30316 9.74974C4.30316 9.74984 4.30316 9.74994 4.30316 9.75004C4.30316 9.75014 4.30316 9.75025 4.30316 9.75035C4.30316 9.75045 4.30316 9.75055 4.30316 9.75065C4.30316 9.75075 4.30316 9.75086 4.30316 9.75096C4.30316 9.75106 4.30316 9.75116 4.30316 9.75126C4.30316 9.75136 4.30316 9.75146 4.30316 9.75157C4.30316 9.75167 4.30316 9.75177 4.30316 9.75187C4.30316 9.75197 4.30316 9.75207 4.30316 9.75218C4.30316 9.75228 4.30316 9.75238 4.30316 9.75248C4.30316 9.75258 4.30316 9.75268 4.30316 9.75278C4.30316 9.75289 4.30316 9.75299 4.30316 9.75309C4.30316 9.75319 4.30316 9.75329 4.30316 9.75339C4.30316 9.7535 4.30316 9.7536 4.30316 9.7537C4.30316 9.7538 4.30316 9.7539 4.30316 9.754C4.30316 9.7541 4.30316 9.75421 4.30316 9.75431C4.30316 9.75441 4.30316 9.75451 4.30316 9.75461C4.30316 9.75471 4.30316 9.75482 4.30316 9.75492C4.30316 9.75502 4.30316 9.75512 4.30316 9.75522C4.30316 9.75532 4.30316 9.75542 4.30316 9.75553C4.30316 9.75563 4.30316 9.75573 4.30316 9.75583C4.30316 9.75593 4.30316 9.75603 4.30316 9.75613C4.30316 9.75624 4.30316 9.75634 4.30316 9.75644C4.30316 9.75654 4.30316 9.75664 4.30316 9.75674C4.30316 9.75685 4.30316 9.75695 4.30316 9.75705C4.30316 9.75715 4.30316 9.75725 4.30316 9.75735C4.30316 9.75745 4.30316 9.75756 4.30316 9.75766C4.30316 9.75776 4.30316 9.75786 4.30316 9.75796C4.30316 9.75806 4.30316 9.75817 4.30316 9.75827C4.30316 9.75837 4.30316 9.75847 4.30316 9.75857C4.30316 9.75867 4.30316 9.75877 4.30316 9.75888C4.30316 9.75898 4.30316 9.75908 4.30316 9.75918C4.30316 9.75928 4.30316 9.75938 4.30316 9.75949C4.30316 9.75959 4.30316 9.75969 4.30316 9.75979C4.30316 9.75989 4.30316 9.75999 4.30316 9.76009C4.30316 9.7602 4.30316 9.7603 4.30316 9.7604C4.30316 9.7605 4.30316 9.7606 4.30316 9.7607C4.30316 9.76081 4.30316 9.76091 4.30316 9.76101C4.30316 9.76111 4.30316 9.76121 4.30316 9.76131C4.30316 9.76142 4.30316 9.76152 4.30316 9.76162C4.30316 9.76172 4.30316 9.76182 4.30316 9.76192C4.30316 9.76202 4.30316 9.76213 4.30316 9.76223C4.30316 9.76233 4.30316 9.76243 4.30316 9.76253C4.30316 9.76263 4.30316 9.76274 4.30316 9.76284C4.30316 9.76294 4.30316 9.76304 4.30316 9.76314C4.30316 9.76324 4.30316 9.76334 4.30316 9.76345C4.30316 9.76355 4.30316 9.76365 4.30316 9.76375C4.30316 9.76385 4.30316 9.76395 4.30316 9.76406C4.30316 9.76416 4.30316 9.76426 4.30316 9.76436C4.30316 9.76446 4.30316 9.76456 4.30316 9.76466C4.30316 9.76477 4.30316 9.76487 4.30316 9.76497C4.30316 9.76507 4.30316 9.76517 4.30316 9.76527C4.30316 9.76538 4.30316 9.76548 4.30316 9.76558C4.30316 9.76568 4.30316 9.76578 4.30316 9.76588C4.30316 9.76598 4.30316 9.76609 4.30316 9.76619C4.30316 9.76629 4.30316 9.76639 4.30316 9.76649C4.30316 9.76659 4.30316 9.7667 4.30316 9.7668C4.30316 9.7669 4.30316 9.767 4.30316 9.7671C4.30316 9.7672 4.30316 9.7673 4.30316 9.76741C4.30316 9.76751 4.30316 9.76761 4.30316 9.76771C4.30316 9.76781 4.30316 9.76791 4.30316 9.76801C4.30316 9.76812 4.30316 9.76822 4.30316 9.76832C4.30316 9.76842 4.30316 9.76852 4.30316 9.76862C4.30316 9.76873 4.30316 9.76883 4.30316 9.76893C4.30316 9.76903 4.30316 9.76913 4.30316 9.76923C4.30316 9.76933 4.30316 9.76944 4.30316 9.76954C4.30316 9.76964 4.30316 9.76974 4.30316 9.76984C4.30316 9.76994 4.30316 9.77005 4.30316 9.77015C4.30316 9.77025 4.30316 9.77035 4.30316 9.77045C4.30316 9.77055 4.30316 9.77065 4.30316 9.77076C4.30316 9.77086 4.30316 9.77096 4.30316 9.77106C4.30316 9.77116 4.30316 9.77126 4.30316 9.77137C4.30316 9.77147 4.30316 9.77157 4.30316 9.77167C4.30316 9.77177 4.30316 9.77187 4.30316 9.77198C4.30316 9.77208 4.30316 9.77218 4.30316 9.77228C4.30316 9.77238 4.30316 9.77248 4.30316 9.77258C4.30316 9.77269 4.30316 9.77279 4.30316 9.77289C4.30316 9.77299 4.30316 9.77309 4.30316 9.77319C4.30316 9.7733 4.30316 9.7734 4.30316 9.7735C4.30316 9.7736 4.30316 9.7737 4.30316 9.7738C4.30316 9.7739 4.30316 9.77401 4.30316 9.77411C4.30316 9.77421 4.30316 9.77431 4.30316 9.77441C4.30316 9.77451 4.30316 9.77462 4.30316 9.77472C4.30316 9.77482 4.30316 9.77492 4.30316 9.77502C4.30316 9.77512 4.30316 9.77522 4.30316 9.77533C4.30316 9.77543 4.30316 9.77553 4.30316 9.77563C4.30316 9.77573 4.30316 9.77583 4.30316 9.77594C4.30316 9.77604 4.30316 9.77614 4.30316 9.77624C4.30316 9.77634 4.30316 9.77644 4.30316 9.77654C4.30316 9.77665 4.30316 9.77675 4.30316 9.77685C4.30316 9.77695 4.30316 9.77705 4.30316 9.77715C4.30316 9.77726 4.30316 9.77736 4.30316 9.77746C4.30316 9.77756 4.30316 9.77766 4.30316 9.77776C4.30316 9.77786 4.30316 9.77797 4.30316 9.77807C4.30316 9.77817 4.30316 9.77827 4.30316 9.77837C4.30316 9.77847 4.30316 9.77857 4.30316 9.77868C4.30316 9.77878 4.30316 9.77888 4.30316 9.77898C4.30316 9.77908 4.30316 9.77918 4.30316 9.77929C4.30316 9.77939 4.30316 9.77949 4.30316 9.77959C4.30316 9.77969 4.30316 9.77979 4.30316 9.77989C4.30316 9.78 4.30316 9.7801 4.30316 9.7802C4.30316 9.7803 4.30316 9.7804 4.30316 9.7805C4.30316 9.78061 4.30316 9.78071 4.30316 9.78081C4.30316 9.78091 4.30316 9.78101 4.30316 9.78111C4.30316 9.78121 4.30316 9.78132 4.30316 9.78142C4.30316 9.78152 4.30316 9.78162 4.30316 9.78172C4.30316 9.78182 4.30316 9.78193 4.30316 9.78203C4.30316 9.78213 4.30316 9.78223 4.30316 9.78233C4.30316 9.78243 4.30316 9.78253 4.30316 9.78264C4.30316 9.78274 4.30316 9.78284 4.30316 9.78294C4.30316 9.78304 4.30316 9.78314 4.30316 9.78325C4.30316 9.78335 4.30316 9.78345 4.30316 9.78355C4.30316 9.78365 4.30316 9.78375 4.30316 9.78386C4.30316 9.78396 4.30316 9.78406 4.30316 9.78416C4.30316 9.78426 4.30316 9.78436 4.30316 9.78446C4.30316 9.78457 4.30316 9.78467 4.30316 9.78477C4.30316 9.78487 4.30316 9.78497 4.30316 9.78507C4.30316 9.78518 4.30316 9.78528 4.30316 9.78538C4.30316 9.78548 4.30316 9.78558 4.30316 9.78568C4.30316 9.78578 4.30316 9.78589 4.30316 9.78599C4.30316 9.78609 4.30316 9.78619 4.30316 9.78629C4.30316 9.78639 4.30316 9.7865 4.30316 9.7866C4.30316 9.7867 4.30316 9.7868 4.30316 9.7869C4.30316 9.787 4.30316 9.7871 4.30316 9.78721C4.30316 9.78731 4.30316 9.78741 4.30316 9.78751C4.30316 9.78761 4.30316 9.78771 4.30316 9.78782C4.30316 9.78792 4.30316 9.78802 4.30316 9.78812C4.30316 9.78822 4.30316 9.78832 4.30316 9.78842C4.30316 9.78853 4.30316 9.78863 4.30316 9.78873C4.30316 9.78883 4.30316 9.78893 4.30316 9.78903C4.30316 9.78913 4.30316 9.78924 4.30316 9.78934C4.30316 9.78944 4.30316 9.78954 4.30316 9.78964C4.30316 9.78974 4.30316 9.78985 4.30316 9.78995C4.30316 9.79005 4.30316 9.79015 4.30316 9.79025C4.30316 9.79035 4.30316 9.79045 4.30316 9.79056C4.30316 9.79066 4.30316 9.79076 4.30316 9.79086C4.30316 9.79096 4.30316 9.79106 4.30316 9.79117C4.30316 9.79127 4.30316 9.79137 4.30316 9.79147C4.30316 9.79157 4.30316 9.79167 4.30316 9.79177C4.30316 9.79188 4.30316 9.79198 4.30316 9.79208C4.30316 9.79218 4.30316 9.79228 4.30316 9.79238C4.30316 9.79249 4.30316 9.79259 4.30316 9.79269C4.30316 9.79279 4.30316 9.79289 4.30316 9.79299C4.30316 9.79309 4.30316 9.7932 4.30316 9.7933C4.30316 9.7934 4.30316 9.7935 4.30316 9.7936C4.30316 9.7937 4.30316 9.79381 4.30316 9.79391C4.30316 9.79401 4.30316 9.79411 4.30316 9.79421C4.30316 9.79431 4.30316 9.79441 4.30316 9.79452C4.30316 9.79462 4.30316 9.79472 4.30316 9.79482C4.30316 9.79492 4.30316 9.79502 4.30316 9.79513C4.30316 9.79523 4.30316 9.79533 4.30316 9.79543C4.30316 9.79553 4.30316 9.79563 4.30316 9.79574C4.30316 9.79584 4.30316 9.79594 4.30316 9.79604C4.30316 9.79614 4.30316 9.79624 4.30316 9.79634C4.30316 9.79645 4.30316 9.79655 4.30316 9.79665C4.30316 9.79675 4.30316 9.79685 4.30316 9.79695C4.30316 9.79706 4.30316 9.79716 4.30316 9.79726C4.30316 9.79736 4.30316 9.79746 4.30316 9.79756C4.30316 9.79766 4.30316 9.79777 4.30316 9.79787C4.30316 9.79797 4.30316 9.79807 4.30316 9.79817C4.30316 9.79827 4.30316 9.79838 4.30316 9.79848C4.30316 9.79858 4.30316 9.79868 4.30316 9.79878C4.30316 9.79888 4.30316 9.79898 4.30316 9.79909C4.30316 9.79919 4.30316 9.79929 4.30316 9.79939C4.30316 9.79949 4.30316 9.79959 4.30316 9.7997C4.30316 9.7998 4.30316 9.7999 4.30316 9.8C4.30316 9.8001 4.30316 9.8002 4.30316 9.8003C4.30316 9.80041 4.30316 9.80051 4.30316 9.80061C4.30316 9.80071 4.30316 9.80081 4.30316 9.80091C4.30316 9.80101 4.30316 9.80112 4.30316 9.80122C4.30316 9.80132 4.30316 9.80142 4.30316 9.80152C4.30316 9.80162 4.30316 9.80173 4.30316 9.80183C4.30316 9.80193 4.30316 9.80203 4.30316 9.80213C4.30316 9.80223 4.30316 9.80233 4.30316 9.80244C4.30316 9.80254 4.30316 9.80264 4.30316 9.80274C4.30316 9.80284 4.30316 9.80294 4.30316 9.80305C4.30316 9.80315 4.30316 9.80325 4.30316 9.80335C4.30316 9.80345 4.30316 9.80355 4.30316 9.80365C4.30316 9.80376 4.30316 9.80386 4.30316 9.80396C4.30316 9.80406 4.30316 9.80416 4.30316 9.80426C4.30316 9.80437 4.30316 9.80447 4.30316 9.80457C4.30316 9.80467 4.30316 9.80477 4.30316 9.80487C4.30316 9.80497 4.30316 9.80508 4.30316 9.80518C4.30316 9.80528 4.30316 9.80538 4.30316 9.80548C4.30316 9.80558 4.30316 9.80569 4.30316 9.80579C4.30316 9.80589 4.30316 9.80599 4.30316 9.80609C4.30316 9.80619 4.30316 9.8063 4.30316 9.8064C4.30316 9.8065 4.30316 9.8066 4.30316 9.8067C4.30316 9.8068 4.30316 9.8069 4.30316 9.80701C4.30316 9.80711 4.30316 9.80721 4.30316 9.80731C4.30316 9.80741 4.30316 9.80751 4.30316 9.80762C4.30316 9.80772 4.30316 9.80782 4.30316 9.80792C4.30316 9.80802 4.30316 9.80812 4.30316 9.80822C4.30316 9.80833 4.30316 9.80843 4.30316 9.80853C4.30316 9.80863 4.30316 9.80873 4.30316 9.80883C4.30316 9.80894 4.30316 9.80904 4.30316 9.80914C4.30316 9.80924 4.30316 9.80934 4.30316 9.80944C4.30316 9.80954 4.30316 9.80965 4.30316 9.80975C4.30316 9.80985 4.30316 9.80995 4.30316 9.81005C4.30316 9.81015 4.30316 9.81026 4.30316 9.81036C4.30316 9.81046 4.30316 9.81056 4.30316 9.81066C4.30316 9.81076 4.30316 9.81086 4.30316 9.81097C4.30316 9.81107 4.30316 9.81117 4.30316 9.81127C4.30316 9.81137 4.30316 9.81147 4.30316 9.81157C4.30316 9.81168 4.30316 9.81178 4.30316 9.81188C4.30316 9.81198 4.30316 9.81208 4.30316 9.81218C4.30316 9.81229 4.30316 9.81239 4.30316 9.81249C4.30316 9.81259 4.30316 9.81269 4.30316 9.81279C4.30316 9.81289 4.30316 9.813 4.30316 9.8131C4.30316 9.8132 4.30316 9.8133 4.30316 9.8134C4.30316 9.8135 4.30316 9.81361 4.30316 9.81371C4.30316 9.81381 4.30316 9.81391 4.30316 9.81401C4.30316 9.81411 4.30316 9.81421 4.30316 9.81432C4.30316 9.81442 4.30316 9.81452 4.30316 9.81462C4.30316 9.81472 4.30316 9.81482 4.30316 9.81493C4.30316 9.81503 4.30316 9.81513 4.30316 9.81523C4.30316 9.81533 4.30316 9.81543 4.30316 9.81553C4.30316 9.81564 4.30316 9.81574 4.30316 9.81584C4.30316 9.81594 4.30316 9.81604 4.30316 9.81614C4.30316 9.81625 4.30316 9.81635 4.30316 9.81645C4.30316 9.81655 4.30316 9.81665 4.30316 9.81675C4.30316 9.81685 4.30316 9.81696 4.30316 9.81706C4.30316 9.81716 4.30316 9.81726 4.30316 9.81736C4.30316 9.81746 4.30316 9.81757 4.30316 9.81767C4.30316 9.81777 4.30316 9.81787 4.30316 9.81797C4.30316 9.81807 4.30316 9.81818 4.30316 9.81828C4.30316 9.81838 4.30316 9.81848 4.30316 9.81858C4.30316 9.81868 4.30316 9.81878 4.30316 9.81889C4.30316 9.81899 4.30316 9.81909 4.30316 9.81919C4.30316 9.81929 4.30316 9.81939 4.30316 9.8195C4.30316 9.8196 4.30316 9.8197 4.30316 9.8198C4.30316 9.8199 4.30316 9.82 4.30316 9.8201C4.30316 9.82021 4.30316 9.82031 4.30316 9.82041C4.30316 9.82051 4.30316 9.82061 4.30316 9.82071C4.30316 9.82082 4.30316 9.82092 4.30316 9.82102C4.30316 9.82112 4.30316 9.82122 4.30316 9.82132C4.30316 9.82142 4.30316 9.82153 4.30316 9.82163C4.30316 9.82173 4.30316 9.82183 4.30316 9.82193C4.30316 9.82203 4.30316 9.82213 4.30316 9.82224C4.30316 9.82234 4.30316 9.82244 4.30316 9.82254C4.30316 9.82264 4.30316 9.82274 4.30316 9.82285C4.30316 9.82295 4.30316 9.82305 4.30316 9.82315C4.30316 9.82325 4.30316 9.82335 4.30316 9.82345C4.30316 9.82356 4.30316 9.82366 4.30316 9.82376C4.30316 9.82386 4.30316 9.82396 4.30316 9.82406C4.30316 9.82417 4.30316 9.82427 4.30316 9.82437C4.30316 9.82447 4.30316 9.82457 4.30316 9.82467C4.30316 9.82477 4.30316 9.82488 4.30316 9.82498C4.30316 9.82508 4.30316 9.82518 4.30316 9.82528C4.30316 9.82538 4.30316 9.82549 4.30316 9.82559H5.80316ZM5.80233 9.70493C5.91737 7.26351 7.98046 5.37211 10.4227 5.46909L10.4822 3.97027C7.21653 3.84059 4.45783 6.36972 4.30399 9.63432L5.80233 9.70493ZM10.4539 5.46968C11.0421 5.46856 11.6261 5.56981 12.1797 5.76891L12.6873 4.35743C11.97 4.09943 11.2133 3.96823 10.451 3.96968L10.4539 5.46968ZM13.1004 5.40629C14.2753 3.12281 16.6471 1.70684 19.2146 1.75616L19.2434 0.256433C16.1037 0.19613 13.2033 1.92767 11.7666 4.72005L13.1004 5.40629ZM19.2602 1.75565C22.7758 1.60926 25.7476 4.33368 25.9066 7.84867L27.405 7.7809C27.2087 3.44042 23.539 0.0761787 19.1978 0.256944L19.2602 1.75565ZM25.9058 7.81545C25.9063 8.39847 25.8147 8.9779 25.6344 9.53233L27.0608 9.9963C27.29 9.29162 27.4064 8.55515 27.4058 7.81413L25.9058 7.81545ZM26.241 10.5067C28.319 10.8051 29.8846 12.5495 29.9575 14.6475L31.4566 14.5954C31.3584 11.7714 29.2511 9.42359 26.4542 9.02193L26.241 10.5067ZM29.9579 14.5864C29.8437 17.0291 27.7794 18.9217 25.336 18.8238L25.276 20.3226C28.5432 20.4535 31.3036 17.9228 31.4563 14.6564L29.9579 14.5864ZM15.1035 15.8598V27H16.6035V15.8598H15.1035ZM15.3232 15.3295L11.6098 19.0429L12.6705 20.1036L16.3839 16.3902L15.3232 15.3295ZM15.3232 16.3902L19.0366 20.1036L20.0973 19.0429L16.3839 15.3295L15.3232 16.3902Z" fill="#954AD2"/>
</svg>
