<svg width="35" height="35" viewBox="0 0 35 35" fill="none" xmlns="http://www.w3.org/2000/svg">
<path fill-rule="evenodd" clip-rule="evenodd" d="M17.5 35C7.83502 35 0 27.165 0 17.5C0 7.83502 7.83502 0 17.5 0C27.165 0 35 7.83502 35 17.5C35 27.165 27.165 35 17.5 35ZM17.7445 16.5181C19.1774 16.5181 26.1445 12.6003 26.1445 12.6003L26.1557 11.9003C26.1557 11.1275 25.5285 10.5003 24.7536 10.5003H10.7354C9.96118 10.5003 9.33398 11.1275 9.33398 11.9003V12.524C9.33398 12.524 16.3774 16.5181 17.7445 16.5181ZM9.34518 14.7001C9.34448 14.7001 16.3774 18.4429 17.7445 18.4429C19.2432 18.4429 26.1445 14.7001 26.1445 14.7001L26.1557 23.1001C26.1557 23.8729 25.5285 24.5001 24.7536 24.5001H10.7354C9.96188 24.5001 9.33398 23.8729 9.33398 23.1001L9.34518 14.7001Z" fill="#954AD2"/>
</svg>
