<svg width="37" height="37" viewBox="0 0 37 37" fill="none" xmlns="http://www.w3.org/2000/svg">
<path d="M3.58819 24.4422C3.73799 23.9106 3.42849 23.3582 2.89691 23.2084C2.36532 23.0586 1.81296 23.3681 1.66316 23.8997L3.58819 24.4422ZM1.10322 29.5737L0.140707 29.3024C0.130271 29.3395 0.121981 29.3771 0.115878 29.4151L1.10322 29.5737ZM3.60315 34.1439L3.44817 35.1318C3.49756 35.1395 3.54746 35.1436 3.59745 35.1438L3.60315 34.1439ZM12.3104 31.3787L11.7881 30.526C11.7679 30.5384 11.7481 30.5515 11.7288 30.5653L12.3104 31.3787ZM23.3651 22.5009L22.6593 21.7924C22.6545 21.7972 22.6498 21.802 22.6451 21.8068L23.3651 22.5009ZM31.8648 11.4529L31.0449 10.8804C31.0286 10.9037 31.0134 10.9277 30.9991 10.9523L31.8648 11.4529ZM34.0397 3.13002L35.0349 3.03189C35.0289 2.97049 35.0171 2.90978 34.9999 2.85054L34.0397 3.13002ZM28.9249 1.22744L28.705 0.251921C28.6682 0.26022 28.6318 0.270596 28.5962 0.282999L28.9249 1.22744ZM24.2213 1.80556C23.6997 1.98709 23.4241 2.55709 23.6056 3.07869C23.7871 3.60029 24.3571 3.87597 24.8787 3.69444L24.2213 1.80556ZM24.5562 2.74917L24.2256 3.69294L24.2268 3.69335L24.5562 2.74917ZM5.23802 8.60267L6.03686 9.20421L5.23802 8.60267ZM4.94866 28.7875L5.76441 28.2091L4.94866 28.7875ZM24.0911 35.1924L23.7877 34.2395L24.0911 35.1924ZM36.0059 18.8974L35.0059 18.8959V18.8971L36.0059 18.8974ZM1.66316 23.8997L0.140707 29.3024L2.06574 29.8449L3.58819 24.4422L1.66316 23.8997ZM0.115878 29.4151C-0.11438 30.8485 -0.0171866 32.1624 0.55223 33.2045C1.14653 34.2922 2.17133 34.9315 3.44817 35.1318L3.75813 33.1559C2.99502 33.0362 2.55861 32.7055 2.30732 32.2456C2.03113 31.7401 1.89833 30.929 2.09056 29.7323L0.115878 29.4151ZM3.59745 35.1438C6.92905 35.1628 10.1817 34.1299 12.892 32.1922L11.7288 30.5653C9.36099 32.2581 6.51941 33.1605 3.60885 33.1439L3.59745 35.1438ZM12.8327 32.2315C16.9515 29.7087 20.7326 26.6722 24.085 23.1949L22.6451 21.8068C19.4105 25.1619 15.7622 28.0918 11.7881 30.526L12.8327 32.2315ZM24.0709 23.2093C27.4389 19.8537 30.3505 16.0693 32.7305 11.9535L30.9991 10.9523C28.707 14.9161 25.9029 18.5608 22.6593 21.7924L24.0709 23.2093ZM32.6847 12.0253C34.5152 9.40359 35.3487 6.21404 35.0349 3.03189L33.0446 3.22815C33.3116 5.93576 32.6024 8.64966 31.0449 10.8804L32.6847 12.0253ZM34.9999 2.85054C34.6443 1.62876 33.8382 0.747031 32.6684 0.311521C31.5515 -0.104243 30.1909 -0.0830679 28.705 0.251921L29.1448 2.20295C30.4313 1.91292 31.3581 1.95784 31.9706 2.18586C32.5301 2.39412 32.8953 2.77619 33.0796 3.4095L34.9999 2.85054ZM28.5962 0.282999L24.2213 1.80556L24.8787 3.69444L29.2536 2.17188L28.5962 0.282999ZM24.8868 1.80541C17.449 -0.80027 9.18014 1.70525 4.43918 8.00112L6.03686 9.20421C10.2541 3.60381 17.6095 1.37513 24.2256 3.69294L24.8868 1.80541ZM4.43918 8.00112C-0.301767 14.297 -0.425622 22.9367 4.1329 29.3659L5.76441 28.2091C1.70941 22.49 1.81959 14.8046 6.03686 9.20421L4.43918 8.00112ZM4.1329 29.3659C8.69144 35.7951 16.8851 38.5366 24.3945 36.1453L23.7877 34.2395C17.1079 36.3667 9.81939 33.9281 5.76441 28.2091L4.1329 29.3659ZM24.3945 36.1453C31.904 33.7539 37.0039 26.7791 37.0059 18.8976L35.0059 18.8971C35.0041 25.908 30.4675 32.1124 23.7877 34.2395L24.3945 36.1453ZM37.0059 18.8989C37.0174 11.2013 32.1531 4.34083 24.8857 1.805L24.2268 3.69335C30.69 5.94856 35.0161 12.0499 35.0059 18.8959L37.0059 18.8989Z" fill="#954AD2"/>
</svg>
